<?xml version="1.0" standalone="no"?>
<!DOCTYPE svg PUBLIC "-//W3C//DTD SVG 20010904//EN"
 "http://www.w3.org/TR/2001/REC-SVG-20010904/DTD/svg10.dtd">
<svg version="1.0" xmlns="http://www.w3.org/2000/svg"
 width="300.000000pt" height="181.000000pt" viewBox="0 0 300.000000 181.000000"
 preserveAspectRatio="xMidYMid meet">
<metadata>
Created by potrace 1.10, written by Peter Selinger 2001-2011
</metadata>
<g transform="translate(0.000000,181.000000) scale(0.100000,-0.100000)"
fill="#000000" stroke="none">
<path d="M1431 1616 c-18 -31 -58 -74 -91 -100 -46 -36 -66 -62 -90 -110 -32
-68 -36 -86 -20 -86 6 0 10 8 10 19 0 21 74 137 105 164 11 9 33 25 49 33 27
15 29 15 21 -2 -4 -11 -10 -32 -12 -49 -3 -22 -2 -26 6 -16 8 12 11 9 17 -15
10 -34 11 -41 13 -54 0 -5 5 -10 10 -10 11 0 5 91 -7 99 -14 11 -7 66 8 66 8
0 16 9 16 20 1 11 2 28 3 38 1 9 6 17 11 17 7 0 7 -6 1 -17 -6 -13 -4 -22 7
-33 14 -13 15 -12 9 3 -7 18 17 25 27 8 3 -4 23 -7 43 -5 60 6 74 10 81 21 8
11 46 1 56 -15 5 -9 19 -89 33 -189 3 -26 2 -43 -4 -43 -6 0 -16 -14 -23 -30
-9 -22 -17 -29 -30 -25 -12 4 -20 -1 -25 -17 -6 -19 -8 -20 -12 -5 -5 18 -23
24 -23 6 0 -5 -5 -7 -10 -4 -6 4 -16 -8 -24 -25 -10 -26 -15 -29 -24 -17 -14
17 -6 47 13 47 16 0 40 28 31 37 -4 4 -11 1 -16 -7 -9 -15 -13 -16 -50 -19
-27 -1 -26 -36 3 -93 20 -39 22 -50 11 -70 -6 -12 -17 -49 -24 -81 -10 -49 -9
-65 5 -107 9 -27 20 -52 25 -55 5 -3 6 -13 3 -22 -6 -15 -7 -14 -14 3 -7 17
-8 17 -8 -4 -1 -35 -30 -130 -57 -186 -24 -51 -26 -68 -5 -42 15 18 96 211
117 278 21 67 74 81 74 20 0 -30 -32 -131 -54 -172 -7 -14 -16 -37 -20 -52 -3
-15 -19 -42 -35 -60 -56 -65 -71 -119 -18 -66 37 37 89 119 136 217 31 65 45
81 69 81 19 0 14 -64 -10 -117 -61 -137 -102 -212 -111 -206 -6 3 -7 1 -3 -6
4 -6 0 -24 -10 -39 -10 -15 -19 -34 -19 -42 -2 -22 -15 -92 -22 -115 -12 -45
15 3 32 55 25 76 74 168 94 175 18 5 44 56 39 77 -1 7 2 27 9 43 6 17 14 42
17 58 7 29 18 41 78 93 20 16 42 42 49 57 7 15 17 27 22 27 5 0 7 9 4 20 -3
11 1 27 9 34 17 17 19 131 3 173 -5 15 -22 40 -36 55 -22 23 -24 30 -15 57 7
19 7 33 1 36 -5 4 -5 15 2 27 19 36 17 207 -3 244 -34 63 -167 84 -244 39 -31
-18 -42 -21 -38 -10 4 10 0 15 -14 15 -11 0 -23 -6 -25 -12 -3 -8 -6 -6 -6 5
-1 11 -9 17 -25 17 -14 0 -28 5 -31 10 -13 21 -32 8 -64 -44z m360 -7 c42 -21
78 -80 79 -127 0 -21 -3 -22 -47 -19 -27 3 -40 3 -30 0 18 -5 24 -23 7 -23 -5
0 -10 -11 -10 -25 0 -15 -6 -25 -14 -25 -14 0 -36 94 -36 155 0 16 -7 36 -16
46 -17 19 -11 39 12 39 8 0 33 -9 55 -21z m76 -176 c3 -7 -3 -10 -15 -6 -16 4
-20 -2 -24 -34 -6 -45 -1 -63 18 -63 8 0 14 -5 14 -10 0 -19 -27 -21 -64 -6
-34 14 -37 14 -50 -5 -20 -29 -26 -10 -10 29 15 34 31 41 40 18 3 -8 11 -17
18 -19 9 -4 12 4 9 28 -5 49 12 87 39 83 12 -2 23 -8 25 -15z m-87 -142 c0
-14 54 -21 62 -8 5 8 8 4 8 -8 0 -11 12 -42 26 -70 l27 -49 -34 28 c-84 71
-166 67 -236 -11 -36 -40 -61 -102 -45 -112 5 -3 12 -20 16 -37 5 -23 2 -34
-13 -48 -20 -18 -21 -18 -32 10 -15 40 -5 108 25 174 31 68 42 82 86 109 45
27 60 27 61 -1 1 -21 2 -20 11 5 9 25 38 39 38 18z m-20 -90 c-25 -4 -55 -13
-68 -21 -29 -18 -62 -79 -63 -117 -1 -28 -1 -28 -10 5 -11 35 -9 38 52 103 33
36 41 39 85 38 l49 -2 -45 -6z m61 -26 c37 -20 69 -70 69 -110 0 -74 -76 -144
-143 -131 -39 7 -85 51 -96 92 -8 31 3 90 23 113 18 23 69 51 94 51 13 0 36
-7 53 -15z"/>
<path d="M1701 1129 c-90 -90 30 -226 127 -144 35 29 47 70 33 107 -28 73
-106 91 -160 37z m109 -19 c26 -26 26 -62 0 -85 -27 -25 -16 -33 12 -9 l23 19
-19 -23 c-12 -14 -26 -20 -37 -17 -9 3 -20 1 -24 -5 -8 -14 -51 29 -58 59 -15
63 57 107 103 61z"/>
<path d="M1955 1475 c22 -19 43 -35 47 -35 18 0 138 -110 138 -125 0 -8 10
-22 23 -32 29 -22 77 -103 77 -129 0 -10 7 -39 16 -64 21 -61 30 -217 15 -276
-7 -26 -27 -64 -45 -85 -35 -42 -119 -109 -135 -109 -18 0 -23 75 -8 119 12
32 15 103 17 299 0 141 -2 253 -6 249 -4 -4 -8 -44 -10 -90 -3 -131 -2 -130
-35 -7 -18 68 -30 71 -14 4 43 -175 49 -234 36 -341 -15 -126 -16 -130 -49
-138 -54 -12 -125 -99 -117 -141 2 -11 4 -24 4 -30 1 -7 8 -15 17 -18 8 -3 12
-2 9 4 -3 6 -2 10 4 10 5 0 12 -4 16 -9 10 -17 -25 -40 -73 -47 -26 -4 -81
-20 -122 -35 -41 -16 -75 -29 -77 -29 -6 0 12 79 23 102 8 15 14 35 13 45 -1
20 -38 -53 -39 -76 0 -8 -14 -42 -30 -76 -21 -44 -54 -85 -113 -141 -82 -79
-82 -80 -104 -166 -28 -104 -28 -107 -5 -101 12 3 19 15 20 36 4 48 46 127 92
172 23 22 57 63 76 92 19 29 41 53 49 53 8 0 18 6 22 14 4 7 32 19 61 26 28 6
55 16 58 22 3 5 30 8 59 7 33 -2 60 2 70 11 19 15 32 6 17 -12 -16 -20 20 -90
76 -148 90 -93 105 -126 100 -212 -3 -50 -1 -58 15 -58 11 0 17 8 18 23 1 20
2 20 6 2 6 -25 23 -44 23 -26 0 24 -32 126 -53 166 -11 22 -50 72 -87 112 -74
79 -87 112 -69 173 16 53 6 86 -31 98 -21 8 -30 18 -30 33 0 16 4 20 17 14 10
-3 45 -9 79 -12 68 -6 124 12 182 62 92 78 122 175 103 335 -28 228 -120 372
-308 486 -73 43 -89 43 -38 -1z m95 -820 c0 -28 -12 -32 -30 -10 -14 16 -6 35
16 35 8 0 14 -10 14 -25z"/>
<path d="M1411 1427 c-1 -10 -6 -15 -11 -12 -14 9 -25 -24 -12 -37 8 -8 14 -4
22 17 6 15 9 33 6 39 -2 6 -5 3 -5 -7z"/>
<path d="M1540 1395 c-7 -19 -18 -31 -23 -28 -6 3 -7 1 -3 -5 13 -22 46 6 46
38 0 38 -3 38 -20 -5z"/>
<path d="M1413 1368 c-5 -7 -13 -21 -16 -31 -6 -16 -8 -16 -39 3 -35 21 -74
25 -98 10 -12 -7 -12 -12 -2 -22 6 -6 12 -26 13 -42 l1 -31 16 37 c18 40 43
49 75 26 15 -12 16 -22 7 -97 -9 -67 -8 -87 2 -100 23 -27 61 -103 69 -135 l7
-31 1 30 c0 17 -10 54 -24 83 -25 53 -32 92 -17 92 24 0 72 -134 72 -203 0
-42 -5 -54 -34 -83 -19 -19 -29 -34 -22 -34 7 0 17 5 24 12 9 9 12 9 12 1 0
-7 -12 -20 -27 -31 -22 -15 -33 -17 -50 -9 -17 7 -30 5 -57 -12 -20 -12 -50
-23 -67 -23 -29 -1 -30 -2 -14 -14 10 -7 21 -15 26 -16 4 -2 11 -15 14 -31 l7
-27 -34 34 c-23 23 -47 36 -77 41 -26 4 -39 10 -31 15 8 5 2 10 -17 14 -70 18
-96 67 -53 103 24 21 26 41 5 49 -12 5 -13 10 -4 20 9 11 8 14 -4 14 -24 0
-31 -19 -17 -46 11 -20 11 -27 -3 -42 -28 -31 -13 -102 22 -102 16 0 14 -11
-6 -27 -16 -13 -14 -14 19 -9 20 2 38 1 40 -4 2 -5 23 -12 47 -15 24 -3 50
-10 57 -15 13 -11 8 -46 -9 -68 -8 -10 -5 -11 17 -2 41 15 42 13 10 -22 -16
-18 -22 -27 -14 -20 25 22 30 13 10 -20 -13 -21 -16 -36 -10 -44 7 -7 2 -20
-15 -38 -14 -15 -25 -34 -25 -42 0 -8 -4 -13 -9 -10 -5 3 -14 -8 -20 -26 -16
-45 -14 -47 14 -13 l24 30 1 -32 c0 -17 -5 -35 -10 -38 -8 -5 -8 -11 0 -20 8
-9 5 -22 -11 -49 -12 -21 -19 -47 -17 -60 4 -19 1 -22 -14 -18 -16 4 -21 -5
-17 -34 0 -4 -5 -11 -13 -16 -10 -8 -10 -9 2 -6 8 3 17 14 20 25 4 17 7 19 17
8 10 -10 9 -16 -3 -26 -11 -9 -12 -14 -3 -20 8 -5 1 -21 -25 -52 -23 -28 -32
-47 -25 -49 7 -2 -3 -14 -22 -26 -34 -22 -34 -22 -7 -22 21 0 32 10 55 48 59
96 72 138 87 269 8 70 21 148 29 173 17 52 39 134 56 205 12 50 38 96 58 102
18 6 23 -26 12 -71 -6 -23 -9 -60 -7 -82 l3 -39 18 32 c9 18 17 40 17 50 0 10
14 47 31 83 39 82 69 184 68 230 l-2 35 -7 -35 c-5 -23 -8 -27 -9 -13 -2 36
-31 115 -57 153 -13 19 -24 47 -24 63 0 16 -4 36 -10 46 -10 20 7 91 24 103 6
4 8 10 5 13 -4 3 -11 0 -16 -7z"/>
<path d="M1455 1308 c-14 -35 -12 -108 5 -118 5 -3 19 -33 30 -65 l20 -60 -4
47 c-3 25 -15 67 -27 92 -20 39 -21 51 -12 91 12 53 8 58 -12 13z"/>
<path d="M1190 1270 c-19 -16 -55 -44 -79 -62 -54 -40 -59 -52 -32 -75 26 -21
27 -51 4 -69 -17 -12 -17 -15 2 -50 12 -22 28 -38 40 -40 11 -1 28 -5 38 -9
26 -11 21 10 -8 29 -14 9 -32 27 -40 40 -13 20 -13 27 -2 49 10 19 17 23 25
15 6 -6 19 -7 29 -3 15 6 16 8 3 14 -40 17 -89 54 -84 62 3 5 32 27 64 49 33
22 64 49 70 60 14 25 12 25 -30 -10z"/>
<path d="M1263 1241 c-5 -3 -7 -17 -3 -31 4 -17 8 -21 14 -12 4 6 18 12 31 12
13 0 26 4 29 8 7 11 -58 32 -71 23z"/>
<path d="M1023 747 c-12 -17 -37 -66 -56 -107 -49 -109 -195 -320 -222 -320
-7 0 -30 -27 -51 -59 -36 -54 -42 -60 -79 -63 -34 -3 -43 -8 -60 -39 -11 -20
-35 -62 -54 -93 -18 -32 -31 -60 -28 -63 8 -7 43 14 38 24 -1 4 5 27 14 50
l18 43 34 -30 c35 -31 73 -40 73 -17 0 8 -11 19 -24 25 -37 17 -62 58 -46 77
16 19 34 19 26 0 -3 -8 -1 -15 5 -15 5 0 12 7 15 15 4 8 12 15 19 15 15 0 83
68 90 90 3 8 18 22 33 31 16 9 55 55 86 103 52 78 76 103 76 76 0 -6 16 -18
35 -27 34 -16 36 -16 53 1 16 18 16 18 -15 13 -23 -5 -37 -1 -48 10 -18 18
-15 42 15 108 10 22 28 65 41 95 13 30 29 61 36 68 15 15 16 22 6 22 -5 0 -18
-15 -30 -33z"/>
<path d="M1060 700 c-12 -8 -12 -10 2 -15 19 -7 38 1 38 16 0 12 -21 11 -40
-1z"/>
<path d="M1152 621 c-17 -17 -32 -27 -32 -21 0 5 -4 10 -9 10 -5 0 -12 -22
-16 -49 -5 -35 -16 -61 -41 -89 -19 -22 -34 -43 -34 -47 0 -3 -14 -35 -30 -71
-17 -35 -33 -78 -37 -94 -3 -17 -9 -30 -14 -30 -16 0 -43 -52 -46 -87 -1 -19
2 -31 7 -28 6 4 10 17 10 29 0 15 7 26 20 29 14 3 21 17 26 46 4 22 13 49 20
58 12 16 13 11 14 -38 0 -30 -6 -61 -12 -69 -7 -8 -3 -6 10 5 21 17 23 25 17
65 -3 25 -8 52 -11 61 -3 9 2 23 9 31 8 8 21 28 30 44 9 17 27 42 41 55 14 13
26 34 26 45 0 12 6 27 14 33 8 7 11 22 8 38 -3 18 -1 24 7 19 6 -4 11 -2 11 5
0 6 12 22 26 34 15 13 25 28 22 35 -2 7 -16 -1 -36 -19z"/>
<path d="M1140 443 c-22 -8 -40 -34 -40 -57 1 -18 4 -16 17 9 9 17 23 35 32
42 17 13 15 15 -9 6z"/>
<path d="M1146 355 c-9 -13 -16 -37 -15 -52 l1 -28 8 26 c4 14 15 38 25 52 9
15 13 27 7 27 -5 0 -17 -11 -26 -25z"/>
<path d="M1041 277 c-7 -9 -11 -26 -9 -39 4 -22 5 -22 17 6 14 35 10 54 -8 33z"/>
<path d="M1975 149 c0 -76 3 -139 8 -139 9 0 9 251 -1 267 -4 6 -7 -51 -7
-128z"/>
<path d="M1087 122 c-10 -19 -16 -36 -14 -38 2 -2 18 11 36 30 28 29 30 34 14
38 -13 4 -23 -5 -36 -30z"/>
<path d="M2047 90 c-10 -30 -21 -61 -24 -67 -3 -8 3 -13 16 -13 16 0 21 9 26
43 4 24 5 55 3 68 -2 19 -7 11 -21 -31z"/>
<path d="M863 93 c-7 -2 -13 -13 -13 -23 0 -10 -6 -20 -12 -23 -9 -3 -7 -10 7
-21 28 -21 45 -20 45 5 0 13 -4 18 -12 13 -8 -5 -9 2 -5 24 4 18 5 32 4 31 -1
0 -8 -3 -14 -6z"/>
<path d="M941 91 c-7 -4 -13 -14 -14 -22 -2 -8 -6 -20 -10 -26 -18 -28 25 -11
61 23 20 20 29 31 20 24 -13 -9 -22 -9 -31 -2 -7 6 -18 7 -26 3z"/>
<path d="M757 54 c-3 -3 -3 -13 0 -22 4 -8 2 -13 -3 -9 -5 3 -34 2 -64 -3 -50
-7 -46 -8 45 -9 l100 -1 -29 25 c-30 26 -39 29 -49 19z"/>
<path d="M1077 54 c-3 -4 -18 -8 -32 -10 -14 -1 -31 -7 -38 -12 -7 -6 -28 -12
-47 -15 -25 -3 -18 -4 22 -5 48 -2 61 2 84 23 15 14 25 25 22 25 -3 0 -8 -3
-11 -6z"/>
<path d="M1580 21 c-51 -9 -15 -20 44 -14 31 4 43 9 34 14 -14 10 -26 9 -78 0z"/>
</g>
</svg>
