<?xml version="1.0" encoding="UTF-8"?>
<svg version="1.1" xmlns="http://www.w3.org/2000/svg" width="512" height="512">
<path d="M0 0 C1.9826883 -0.00435625 3.96537491 -0.00954242 5.94805908 -0.01548767 C11.29539476 -0.02879178 16.64265938 -0.02946589 21.99000835 -0.02692437 C26.47255202 -0.02584864 30.95508167 -0.03075343 35.43762231 -0.03552979 C46.02352988 -0.04659565 56.60940196 -0.04707911 67.1953125 -0.04101562 C78.07320998 -0.03498015 88.95097797 -0.04728282 99.82885337 -0.06858569 C109.20684239 -0.08626796 118.58479044 -0.09219258 127.9627955 -0.08894795 C133.54674319 -0.08714523 139.13059853 -0.08966922 144.71453094 -0.10366249 C149.9710886 -0.11634431 155.22744617 -0.1142 160.48400116 -0.1012516 C162.39862133 -0.0989085 164.31325605 -0.10153771 166.2278595 -0.10987473 C192.14642816 -0.21448094 216.09322857 4.21697898 235.28222656 22.9621582 C259.12441947 47.36884893 258.43018954 78.32720342 258.36190057 110.2024672 C258.35505137 114.94007521 258.36562002 119.67765125 258.37384033 124.41525269 C258.38711722 133.67144844 258.38432722 142.92757084 258.37560241 152.18376936 C258.36880315 159.71130352 258.36791879 167.23881725 258.37117386 174.76635361 C258.37163356 175.84126189 258.37209326 176.91617018 258.37256689 178.02365144 C258.37352614 180.20787487 258.37449878 182.39209829 258.37548466 184.57632171 C258.38402063 205.01370927 258.37423221 225.45105634 258.35808356 245.88843726 C258.34467819 263.39561579 258.34701378 280.90273465 258.36083984 298.40991211 C258.3769208 318.7816306 258.38320084 339.15331369 258.37400305 359.52503765 C258.37304749 361.7002232 258.37210437 363.87540876 258.37117386 366.05059433 C258.37071103 367.12060046 258.37024821 368.19060659 258.36977135 369.29303715 C258.36718929 376.80589257 258.37153542 384.31872539 258.37861252 391.8315773 C258.38705555 400.99511483 258.38468854 410.15857533 258.36877029 419.32210411 C258.36092575 423.99059957 258.35773031 428.65896694 258.36771774 433.32746124 C258.37674474 437.6120276 258.37160207 441.89634875 258.35578509 446.18089329 C258.35247085 447.71964617 258.35405425 449.25842035 258.36141245 450.79715921 C258.39672113 458.80342272 257.97560424 466.51271415 256.60997963 474.41355705 C256.49060265 475.10554453 256.37122566 475.79753202 256.24823119 476.51048882 C253.81765117 489.31733953 246.80843788 498.77967435 236.15722656 506.0871582 C224.34338035 512.7324467 210.79879968 514.62730171 197.57519531 511.4621582 C180.67121386 504.94496054 166.18515626 491.80551024 152.58276367 480.18920898 C149.42272907 477.4913711 146.22693616 474.85415806 142.96972656 472.2746582 C139.06830676 469.18392303 135.25881304 466.00087314 131.46972656 462.7746582 C126.98445169 458.9577747 122.44909404 455.22525275 117.82910156 451.5715332 C115.50770225 449.70680261 113.21099426 447.82031461 110.92285156 445.9152832 C97.23253632 432.8473591 97.23253632 432.8473591 80.37597656 426.8059082 C72.55949325 428.32859976 65.95163962 434.93415486 60.27441406 440.17700195 C56.0009192 444.0666066 51.45935033 447.63931007 46.96972656 451.2746582 C41.06561273 456.07175069 35.20228266 460.90915901 29.40722656 465.8371582 C24.80203366 469.75170706 20.14193593 473.58026839 15.40332031 477.33325195 C12.87924704 479.34683849 10.39348562 481.40211498 7.90722656 483.4621582 C-28.17677903 512.92056955 -28.17677903 512.92056955 -46.15527344 512.7746582 C-46.9820459 512.76893799 -47.80881836 512.76321777 -48.66064453 512.75732422 C-60.43611282 512.41928883 -70.44684959 508.46039446 -79.03027344 500.2746582 C-80.09375 499.28852539 -80.09375 499.28852539 -81.17871094 498.2824707 C-94.12494892 485.14372361 -94.33782165 466.39967501 -94.29096985 449.03329468 C-94.29399648 447.42694218 -94.29788851 445.82059113 -94.30256242 444.21424258 C-94.31278557 439.8336568 -94.31067518 435.45315338 -94.30638182 431.07256103 C-94.30390415 426.33481335 -94.31294174 421.59708498 -94.32041931 416.85934448 C-94.33314038 407.5896397 -94.33496317 398.31996393 -94.33261905 389.05025189 C-94.3308325 381.51019909 -94.33259275 373.97015506 -94.33684349 366.4301033 C-94.33743868 365.35495952 -94.33803387 364.27981574 -94.33864709 363.17209185 C-94.33985891 360.98755068 -94.34107305 358.80300952 -94.34228947 356.61846836 C-94.35315543 336.15053607 -94.35100723 315.68262028 -94.34490462 295.21468706 C-94.33973869 276.52066742 -94.35098406 257.82669993 -94.37000284 239.13269059 C-94.38941125 219.90728139 -94.39763183 200.68189682 -94.39387959 181.45647776 C-94.3919718 170.67516464 -94.3944137 159.89389588 -94.40859413 149.11259079 C-94.42054737 139.93213507 -94.42186895 130.75175101 -94.40980396 121.57129423 C-94.4039423 116.89448811 -94.40273998 112.2178128 -94.41480637 107.54101562 C-94.49247261 75.185523 -94.18523195 46.83971788 -70.03027344 22.2746582 C-69.34320313 21.57469727 -68.65613281 20.87473633 -67.94824219 20.15356445 C-48.99086173 2.1106402 -24.92377124 -0.03649191 0 0 Z M-51.03027344 50.2746582 C-61.06661321 63.70564231 -61.21859458 78.32975565 -61.58447266 94.44995117 C-61.60543495 95.34044592 -61.62639724 96.23094066 -61.64799476 97.1484201 C-62.2863394 125.15652311 -62.17719805 153.17621424 -62.16557384 181.18996186 C-62.16326023 186.91507265 -62.16301545 192.64018047 -62.1640892 198.3652916 C-62.16424244 199.19176192 -62.16439567 200.01823224 -62.16455355 200.86974712 C-62.16487339 202.55062144 -62.1651976 204.23149576 -62.16552614 205.91237007 C-62.16835208 221.53487721 -62.16513963 237.1573784 -62.15972577 252.77988456 C-62.15525871 266.0803915 -62.15603853 279.3808897 -62.16064453 292.68139648 C-62.16603905 308.26535048 -62.16807939 323.84929932 -62.16503227 339.43325412 C-62.16471384 341.10605486 -62.16439947 342.7788556 -62.1640892 344.45165634 C-62.16393493 345.27392789 -62.16378065 346.09619945 -62.1636217 346.94338832 C-62.16277118 352.63880565 -62.16420969 358.33421957 -62.16656876 364.02963638 C-62.21553561 405.5275776 -62.21553561 405.5275776 -61.64697266 447.02026367 C-61.63183066 447.82390232 -61.61668866 448.62754097 -61.60108781 449.45553231 C-61.68357053 462.86683473 -61.68357053 462.86683473 -57.21777344 475.2121582 C-54.0616961 478.18788826 -51.51518822 479.03842176 -47.28027344 479.7121582 C-37.51586873 478.39771911 -29.47577589 470.24709355 -22.03027344 464.2746582 C-21.4123291 463.77901367 -20.79438477 463.28336914 -20.15771484 462.77270508 C-10.4279456 454.9453494 -0.8032523 446.98799285 8.82861328 439.04077148 C10.95947667 437.2831129 13.09133766 435.52667324 15.22363281 433.77075195 C16.27502441 432.9048645 16.27502441 432.9048645 17.34765625 432.02148438 C18.76063537 430.85836131 20.17404597 429.69576221 21.58789062 428.53369141 C25.17870919 425.5809006 28.75996604 422.61768894 32.32519531 419.6340332 C51.53950669 403.59189587 66.00326392 392.36032673 91.96972656 394.2746582 C105.15535224 396.80800758 115.56330225 406.36936533 125.3984375 414.92114258 C129.51136447 418.46403678 133.75848686 421.84992944 137.96972656 425.2746582 C144.48307443 430.591882 150.98064632 435.92786649 157.46972656 441.2746582 C165.77117528 448.11668652 165.77117528 448.11668652 174.09863281 454.92700195 C176.34445348 456.76338049 178.57907482 458.6112199 180.80957031 460.46606445 C188.23498585 466.61129653 195.56420165 472.49879178 203.96972656 477.2746582 C204.63617188 477.66524414 205.30261719 478.05583008 205.98925781 478.45825195 C209.63339315 479.96046948 213.22723876 479.19691413 216.96972656 478.2746582 C220.97933034 475.88595808 222.69392126 473.73997675 223.96972656 469.2746582 C225.37819334 461.97843814 225.34788162 454.61199248 225.52392578 447.20776367 C225.55536922 445.93490843 225.55536922 445.93490843 225.58744788 444.63633895 C226.24801196 416.97446106 226.1164982 389.29798698 226.10502697 361.62995536 C226.10271482 355.90385481 226.10246799 350.17775723 226.10354233 344.45165634 C226.10369556 343.62549248 226.10384879 342.79932862 226.10400667 341.9481295 C226.10432651 340.26790358 226.10465073 338.58767765 226.10497926 336.90745173 C226.10780692 321.28107769 226.10459035 305.65470958 226.0991789 290.02833651 C226.09471504 276.72844208 226.09548868 263.42855638 226.10009766 250.12866211 C226.1054949 234.54763327 226.10753075 218.96660959 226.10448539 203.38557994 C226.10416697 201.7121505 226.10385259 200.03872105 226.10354233 198.3652916 C226.10338805 197.54271149 226.10323378 196.72013139 226.10307483 195.87262461 C226.10222485 190.17917198 226.10366394 184.48572277 226.10602188 178.79227066 C226.16035324 138.16066329 226.16035324 138.16066329 225.69731116 97.53294158 C225.6659355 95.81746434 225.63857856 94.10190706 225.61598039 92.38629174 C225.36100789 74.27577488 223.27622627 59.27612478 210.42285156 45.5715332 C199.59480654 35.43317257 186.00605106 33.11716808 171.67443848 33.13421631 C170.87851587 33.13124519 170.08259326 33.12827406 169.26255178 33.12521291 C166.61610434 33.11659509 163.96970251 33.11502355 161.32324219 33.11352539 C159.41701157 33.10889222 157.51078186 33.10386689 155.60455322 33.09848022 C150.43882848 33.08540017 145.27311671 33.07891958 140.10737801 33.07446957 C136.8736008 33.07153104 133.63982708 33.06742473 130.40605164 33.06296539 C120.26980561 33.04930052 110.13356762 33.03962956 99.99731302 33.0357635 C88.33139764 33.03128853 76.66559977 33.0137624 64.9997201 32.98476291 C55.95989067 32.96307845 46.92009414 32.95305558 37.88023901 32.95172238 C32.49187536 32.95067897 27.10362231 32.94487077 21.71528625 32.92690277 C16.63939438 32.91030528 11.56369485 32.9083227 6.48778534 32.91704178 C4.63682791 32.91780601 2.78585964 32.9135517 0.93492889 32.90358353 C-19.46522821 32.80026495 -36.39617646 34.6201565 -51.03027344 50.2746582 Z " fill="#000000" transform="translate(174.0302734375,-0.274658203125)"/>
<path d="M0 0 C4.8143755 4.57365673 6.75156236 7.6837462 7 14.375 C7.08337423 22.37892595 2.00244855 27.15626285 -3.1875 32.625 C-4.26353242 33.77426081 -5.33904912 34.92400468 -6.4140625 36.07421875 C-6.94032227 36.63544434 -7.46658203 37.19666992 -8.00878906 37.77490234 C-10.05506226 39.97059234 -12.06091518 42.20107219 -14.0625 44.4375 C-17.3505372 48.10606954 -20.66673766 51.74754178 -24 55.375 C-27.35293117 59.02427171 -30.68998357 62.68669598 -34 66.375 C-37.77537217 70.58184327 -41.58980448 74.75174853 -45.4140625 78.9140625 C-48.29422607 82.05167086 -51.15531614 85.20520941 -54 88.375 C-57.77537217 92.58184327 -61.58980448 96.75174853 -65.4140625 100.9140625 C-68.29422607 104.05167086 -71.15531614 107.20520941 -74 110.375 C-74.72058594 111.17292969 -75.44117188 111.97085938 -76.18359375 112.79296875 C-77.87716811 114.68074725 -79.55398332 116.57880508 -81.22265625 118.48828125 C-89.38535754 127.74441534 -96.96691231 133.91872083 -109.5625 135.66015625 C-118.8579127 136.09119353 -127.52651859 132.31035796 -134.5 126.375 C-138.71771565 122.24460765 -142.59836642 117.80063283 -146.5 113.375 C-148.01926914 111.68609161 -149.53996039 109.99846068 -151.0625 108.3125 C-152.13177734 107.11947266 -152.13177734 107.11947266 -153.22265625 105.90234375 C-155.79810009 103.04417537 -158.39711975 100.20814023 -161 97.375 C-162.83396672 95.37557931 -164.66702662 93.37533182 -166.5 91.375 C-167.67949219 90.08916016 -167.67949219 90.08916016 -168.8828125 88.77734375 C-185.89273865 70.0782786 -185.89273865 70.0782786 -185.77734375 59.359375 C-185.27970509 54.00450268 -182.74904972 51.56159723 -179 48 C-173.94221514 45.65174274 -168.98314207 45.40402693 -163.5 46.375 C-157.83885143 49.35536044 -153.83913096 53.97209025 -149.5625 58.625 C-148.88509766 59.35074219 -148.20769531 60.07648438 -147.50976562 60.82421875 C-143.64206055 64.98487559 -139.86842015 69.21722925 -136.14135742 73.50390625 C-133.68763352 76.3010712 -131.16064114 79.02722983 -128.625 81.75 C-124.12783551 86.59173677 -119.70244785 91.48543643 -115.33984375 96.44921875 C-113.45423315 98.56327176 -113.45423315 98.56327176 -110.5 100.375 C-105.31008525 94.72914882 -100.12202236 89.08266194 -95 83.375 C-91.22462783 79.16815673 -87.41019552 74.99825147 -83.5859375 70.8359375 C-80.70577393 67.69832914 -77.84468386 64.54479059 -75 61.375 C-71.22462783 57.16815673 -67.41019552 52.99825147 -63.5859375 48.8359375 C-60.70577393 45.69832914 -57.84468386 42.54479059 -55 39.375 C-51.22462783 35.16815673 -47.41019552 30.99825147 -43.5859375 26.8359375 C-40.70577393 23.69832914 -37.84468386 20.54479059 -35 17.375 C-34.28457031 16.5809375 -33.56914062 15.786875 -32.83203125 14.96875 C-31.58751223 13.58456134 -30.34392952 12.19950961 -29.10693359 10.80859375 C-27.639247 9.15909145 -26.16387342 7.51672724 -24.6875 5.875 C-24.00300781 5.09962891 -24.00300781 5.09962891 -23.3046875 4.30859375 C-17.01804792 -2.64565357 -8.63408081 -4.00868038 0 0 Z " fill="#000000" transform="translate(345.5,129.625)"/>
</svg>
